<svg width="451" height="61" viewBox="0 0 451 61" fill="none" xmlns="http://www.w3.org/2000/svg">
<path fill-rule="evenodd" clip-rule="evenodd" d="M145.53 22.7904C148.41 22.7905 150.74 23.7003 152.479 25.5101L152.49 25.4896V23.3002H157.6V47.0697C157.6 50.4297 157.16 53.0502 156.29 54.8402C154.48 58.5601 150.76 60.5296 145.54 60.5297C139.58 60.5297 135.539 57.6699 134.979 53.0599L134.89 52.35H140.21L140.32 52.85C140.82 55.0999 143.41 55.8998 145.67 55.8998C149.82 55.8998 151.9 53.8902 152.19 49.5805C152.22 49.1105 152.25 48.0098 152.27 46.8597C150.56 48.6196 148.19 49.5999 145.53 49.6C137.57 49.6 134 42.7196 134 36.2396C134 29.7597 137.6 22.7904 145.53 22.7904ZM146.01 27.5697C142.05 27.5698 139.59 30.8102 139.59 36.0101C139.59 43.92 143.98 44.7797 145.87 44.7797C149.92 44.7796 152.34 41.5 152.34 36.0101C152.34 29.7901 149.07 27.5697 146.01 27.5697Z" fill="#0C0D0D"/>
<path d="M11.9404 15.1596C12.4405 14.8798 13.2504 14.8797 13.7402 15.1596L30.2598 24.6996V43.7797C30.2598 44.3496 29.8503 45.0502 29.3604 45.3402L18.2002 51.7904V31.6703L0.780273 21.6097L11.9404 15.1596Z" fill="#0C0D0D"/>
<path fill-rule="evenodd" clip-rule="evenodd" d="M118.64 22.7904C122.59 22.7904 125.85 24.21 128.08 26.89C130.04 29.2599 131.13 32.5798 131.13 36.2396C131.13 42.5996 127.86 50.0297 118.64 50.0297C111.05 50.0295 106.15 44.6899 106.15 36.4301C106.15 34.4701 106.49 30.6901 108.79 27.4701C110.98 24.4102 114.39 22.7905 118.64 22.7904ZM118.64 27.5697C114.42 27.5699 111.79 31.03 111.79 36.4398C111.79 41.8497 114.41 45.2102 118.64 45.2103C122.89 45.2103 125.54 41.6701 125.54 36.3402C125.54 31.0102 122.86 27.5697 118.64 27.5697Z" fill="#0C0D0D"/>
<path fill-rule="evenodd" clip-rule="evenodd" d="M189.71 22.85C196.54 22.85 201.31 27.7605 201.58 35.0805V35.5502C201.59 36.1702 201.6 37.0303 201.52 37.6303L201.45 38.14H182.97C183.22 42.55 185.85 45.2601 189.94 45.2601C192.01 45.26 194.7 44.5793 195.83 41.3695L195.93 41.0805L195.94 41.1H201.34L201.17 41.7396C199.71 47.0696 195.73 50.0101 189.95 50.0101C182.47 50.0101 177.45 44.5802 177.45 36.5004C177.45 33.1104 178.47 29.79 180.25 27.39C182.45 24.42 185.72 22.85 189.71 22.85ZM189.61 27.5297C186.08 27.5297 183.601 29.8298 183.15 33.4496H195.94C195.49 29.1001 192.3 27.5298 189.61 27.5297Z" fill="#0C0D0D"/>
<path d="M275.24 13.9398C278.89 13.9399 282.48 15.0199 285.04 16.8998V20.1498C282.3 17.8699 279.23 16.6195 275.29 16.6195C270.96 16.6195 267.481 18.67 267.48 22.7797C267.481 26.1995 269.87 27.6796 273.58 29.1596L279 31.4398C284.13 33.6597 286.469 36.1697 286.47 40.6791C286.47 46.2691 281.8 49.9691 275.41 49.9691C270.74 49.9691 266.86 48.4896 264.58 46.4896V43.1293C267.94 46.1493 271.36 47.2894 275.41 47.2894C280.43 47.2894 283.62 44.7797 283.62 40.7299C283.62 37.1903 281.62 35.7694 277.351 33.9496L272.22 31.7797C268.57 30.2397 264.64 28.1293 264.64 22.8295C264.64 16.8998 269.6 13.9398 275.24 13.9398Z" fill="#0C0D0D"/>
<path fill-rule="evenodd" clip-rule="evenodd" d="M361.94 23.6293C368.67 23.6295 371.97 28.6499 371.97 35.9994V37.0297H353.78C353.78 43.8694 357.77 47.4591 363.02 47.4594L363.01 47.4691C365.86 47.4691 367.97 46.7893 370.14 44.9594V47.7494C368.26 49.2893 365.75 49.9691 362.79 49.9691C355.72 49.9691 350.99 44.9496 350.99 37.0297C350.99 29.1099 355.211 23.6293 361.94 23.6293ZM361.91 26.1498C357.75 26.1498 354.56 29.2299 353.87 34.6996H369.21C369.04 30.2498 366.93 26.1499 361.91 26.1498Z" fill="#0C0D0D"/>
<path fill-rule="evenodd" clip-rule="evenodd" d="M427.33 23.6293C434.06 23.6293 437.36 28.6497 437.36 35.9994V37.0297H419.18C419.18 43.8695 423.17 47.4593 428.42 47.4594L428.41 47.4691C431.26 47.4691 433.37 46.7894 435.53 44.9594V47.7494C433.65 49.2894 431.14 49.9691 428.18 49.9691C421.11 49.9689 416.38 44.9494 416.38 37.0297C416.38 29.1099 420.6 23.6293 427.33 23.6293ZM427.32 26.1498C423.16 26.1498 419.97 29.2299 419.28 34.6996H434.62C434.45 30.2498 432.34 26.1499 427.32 26.1498Z" fill="#0C0D0D"/>
<path d="M214.71 22.8803C221.51 22.8803 225.03 25.4403 225.47 30.7103L225.51 31.2504H220.27L220.2 30.8305C219.67 27.8006 216.66 27.35 214.91 27.35C213.4 27.35 209.88 27.6203 209.88 30.1303C209.88 31.2701 210.851 32.1099 212.86 32.6898C213.46 32.8598 214.35 33.09 215.37 33.35C217.5 33.9 220.16 34.5902 221.5 35.0502C224.83 36.2202 226.52 38.4202 226.52 41.5902H226.53C226.53 45.7501 223.08 49.9398 215.37 49.9398C208.55 49.9398 204.49 46.9901 203.95 41.6303L203.89 41.0805H209.21L209.29 41.4799C209.94 44.6998 213.01 45.3802 215.47 45.3803C218.17 45.3803 221.05 44.5097 221.05 42.0697C221.05 40.8399 220.25 39.9601 218.66 39.4701C217.72 39.1901 216.57 38.8699 215.34 38.5199C213.24 37.9299 211.06 37.3197 209.72 36.8597C206.4 35.6697 204.5 33.36 204.5 30.5101C204.5 25.2401 209.63 22.8803 214.71 22.8803Z" fill="#0C0D0D"/>
<path d="M239.67 22.8803C246.47 22.8803 249.99 25.4403 250.43 30.7103L250.479 31.2504H245.24L245.17 30.8305C244.64 27.8004 241.63 27.35 239.88 27.35C238.37 27.35 234.85 27.6203 234.85 30.1303C234.85 31.2701 235.82 32.1099 237.83 32.6898C238.43 32.8598 239.32 33.09 240.35 33.35C242.479 33.8999 245.139 34.5902 246.479 35.0502C249.809 36.2202 251.5 38.4202 251.5 41.5902H251.479C251.479 45.7501 248.03 49.9397 240.32 49.9398C233.5 49.9398 229.441 46.9901 228.9 41.6303L228.84 41.0805H234.16L234.24 41.4799C234.89 44.6999 237.96 45.3803 240.42 45.3803C243.12 45.3803 246 44.5097 246 42.0697C246 40.84 245.2 39.9601 243.61 39.4701C242.67 39.1901 241.51 38.8699 240.29 38.5199C238.19 37.9299 236.01 37.3197 234.68 36.8597C231.36 35.6697 229.46 33.36 229.46 30.5101C229.46 25.2401 234.59 22.8803 239.67 22.8803Z" fill="#0C0D0D"/>
<path fill-rule="evenodd" clip-rule="evenodd" d="M324.09 23.6293C329.45 23.6293 332.809 26.7096 332.81 31.7191V49.4496H330.07V47.0599C328.99 48.3699 326.19 49.85 323.06 49.85C317.93 49.8498 313.71 46.8893 313.71 42.0394C313.71 37.1898 317.93 34.2895 323.17 34.2894C326.19 34.2894 328.93 35.7192 330.07 36.9691V31.8998C330.07 28.48 327.68 26.2592 323.8 26.2592C320.89 26.2592 318.5 27.12 316.45 28.4799V25.7396C318.16 24.5997 320.95 23.6293 324.09 23.6293ZM323.34 36.6996C319.75 36.6996 316.441 38.4703 316.44 42.0599C316.441 45.6496 319.75 47.4798 323.34 47.4799C326.42 47.4799 329.27 45.8791 330.07 43.7191V40.4594C329.27 38.2896 326.42 36.6996 323.34 36.6996Z" fill="#0C0D0D"/>
<path d="M24.0098 0.460333C24.4997 0.170371 25.3096 0.170445 25.8096 0.460333L49.0303 13.8695V40.6898C49.0303 41.2598 48.6299 41.9596 48.1299 42.2396L35.6201 49.4603V21.6L11.5 7.68006L24.0098 0.460333Z" fill="#0C0D0D"/>
<path fill-rule="evenodd" clip-rule="evenodd" d="M75.5898 13.8597C86.7795 13.8597 87.9902 21.3195 87.9902 24.5297C87.9902 31.5997 83.5996 35.4896 75.6396 35.4896H68.2803V49.4603H62.4502V13.8597H75.5898ZM68.29 30.2797H74.8799C79.9898 30.2797 82.0702 28.6401 82.0703 24.6303C82.0703 20.9204 79.9701 19.1196 75.6504 19.1195H68.29V30.2797Z" fill="#0C0D0D"/>
<path d="M293.39 28.1996C294.93 25.8097 297.891 23.64 301.48 23.64C307.24 23.6402 310.26 27.35 310.26 32.6996V49.4594H307.47V33.1C307.47 29.1702 305.47 26.2592 300.97 26.2592C297.49 26.2593 294.64 28.7101 293.39 31.7299V49.4594H290.54V12.4096H293.39V28.1996Z" fill="#0C0D0D"/>
<path d="M396.81 17.14H379.42V30.4799H395.89V33.1H379.42V49.4594H376.52V14.4594H396.81V17.14Z" fill="#0C0D0D"/>
<path d="M403.5 49.4594H400.65V24.1498H403.5V49.4594Z" fill="#0C0D0D"/>
<path d="M412.06 49.4594H409.21V12.4096H412.06V49.4594Z" fill="#0C0D0D"/>
<path d="M101.46 22.9799C102.9 22.8099 104.3 23.0099 105.37 23.5199H105.36L105.8 23.7299L104.81 28.9896L104.13 28.7797C103.57 28.6097 103.01 28.52 102.44 28.5199C96.9905 28.5199 96.5498 32.8599 96.5498 38.1097V49.4496H91.1504V23.3099H96.2197V26.4603C97.5997 24.3403 99.27 23.2399 101.46 22.9799Z" fill="#0C0D0D"/>
<path d="M172.64 22.9799C174.08 22.8099 175.48 23.0099 176.54 23.5199H176.53L176.97 23.7299L175.979 28.9896L175.3 28.7797C174.74 28.6097 174.18 28.5199 173.62 28.5199C168.17 28.5199 167.73 32.8599 167.729 38.1097V49.4496H162.33V23.3099H167.4V26.4603C168.78 24.3404 170.45 23.2399 172.64 22.9799Z" fill="#0C0D0D"/>
<path d="M348.101 23.6293C349.07 23.6293 349.75 23.7992 350.32 23.9691V26.7592L350.33 26.7699C349.65 26.48 348.91 26.31 347.99 26.3099C344.91 26.3099 342.46 28.5299 341.26 31.7797V49.4496H338.41V24.14H341.26V28.1898C342.4 25.68 344.971 23.6293 348.101 23.6293Z" fill="#0C0D0D"/>
<path d="M12.8301 48.6898L0.780273 41.7299L12.8301 34.7601V48.6898Z" fill="#0C0D0D"/>
<path fill-rule="evenodd" clip-rule="evenodd" d="M256.05 20.4203C256.92 20.4203 257.49 20.9299 257.49 21.7797C257.49 22.3896 257.2 22.8003 256.74 22.9603L257.63 24.3197H256.41L255.66 23.0805H255.311L255.32 23.0902V24.3305H254.22V20.4203H256.05ZM255.93 21.3402H255.32V22.2103H255.93C256.26 22.2103 256.44 22.0497 256.44 21.7797C256.44 21.5098 256.26 21.3305 255.93 21.3305V21.3402Z" fill="#0C0D0D"/>
<path fill-rule="evenodd" clip-rule="evenodd" d="M255.75 18.6801C257.76 18.6801 259.43 20.2499 259.43 22.3998C259.43 24.5498 257.76 26.1195 255.75 26.1195C253.74 26.1195 252.07 24.5498 252.07 22.3998C252.07 20.2499 253.74 18.6801 255.75 18.6801ZM255.75 19.3099C254.08 19.31 252.74 20.5899 252.74 22.3998C252.74 24.2098 254.08 25.4896 255.75 25.4896C257.42 25.4896 258.76 24.2098 258.76 22.3998C258.76 20.5899 257.42 19.3099 255.75 19.3099Z" fill="#0C0D0D"/>
<path fill-rule="evenodd" clip-rule="evenodd" d="M441.59 20.4203C442.46 20.4203 443.03 20.9299 443.03 21.7797C443.03 22.3896 442.74 22.8003 442.28 22.9603L443.17 24.3197H441.95L441.2 23.0805H440.851L440.86 23.0902V24.3305H439.76V20.4203H441.59ZM441.47 21.3402H440.86V22.2103H441.47C441.8 22.2103 441.98 22.0497 441.98 21.7797C441.98 21.5098 441.8 21.3305 441.47 21.3305V21.3402Z" fill="#0C0D0D"/>
<path fill-rule="evenodd" clip-rule="evenodd" d="M441.28 18.6801C443.29 18.6802 444.96 20.25 444.96 22.3998C444.96 24.5497 443.29 26.1194 441.28 26.1195C439.27 26.1195 437.601 24.5498 437.601 22.3998C437.601 20.2499 439.27 18.6801 441.28 18.6801ZM441.28 19.3099C439.61 19.3099 438.271 20.5899 438.271 22.3998C438.271 24.2098 439.61 25.4896 441.28 25.4896C442.95 25.4895 444.29 24.2097 444.29 22.3998C444.29 20.59 442.95 19.31 441.28 19.3099Z" fill="#0C0D0D"/>
<path d="M402.07 14.5092C403.15 14.5093 404.01 15.4198 404.01 16.4496C404.01 17.5295 403.15 18.3899 402.07 18.39C400.99 18.39 400.13 17.5396 400.13 16.4496C400.13 15.4198 400.99 14.5092 402.07 14.5092Z" fill="#0C0D0D"/>
</svg>
